IKResults
version=1
nRows=5
nColumns=40
inDegrees=yes

Units are S.I. units (second, meters, Newtons, ...)
Angles are in degrees.

endheader
time	pelvis_tilt	pelvis_list	pelvis_rotation	pelvis_tx	pelvis_ty	pelvis_tz	hip_flexion_r	hip_adduction_r	hip_rotation_r	knee_angle_r	knee_angle_r_beta	ankle_angle_r	subtalar_angle_r	mtp_angle_r	hip_flexion_l	hip_adduction_l	hip_rotation_l	knee_angle_l	knee_angle_l_beta	ankle_angle_l	subtalar_angle_l	mtp_angle_l	lumbar_extension	lumbar_bending	lumbar_rotation	arm_flex_r	arm_add_r	arm_rot_r	elbow_flex_r	pro_sup_r	wrist_flex_r	wrist_dev_r	arm_flex_l	arm_add_l	arm_rot_l	elbow_flex_l	pro_sup_l	wrist_flex_l	wrist_dev_l
      1.44000000	     16.51366206	      2.86375252	     -0.99969731	      0.51876713	      0.93233255	      1.02346543	    -28.00627808	     -1.98126957	     -7.74550345	    -19.69840799	     -0.34380208	     12.85404949	     -3.22844815	     -1.12266794	      3.64238150	     -1.17199399	     22.58274381	    -13.39463105	     -0.23378041	      6.99507732	     -4.41965228	     -8.70388499	    -21.48670541	     -5.72732671	      3.78619873	      2.39123918	    -15.83646435	     -3.23098912	     54.21686628	     89.95437384	      0.00000000	      0.00000000	    -10.62632397	      9.08669565	     27.42153747	     11.31808628	     89.95437384	      0.00000000	      0.00000000
      1.45000000	     16.24798404	      2.84721564	     -0.99291952	      0.52998506	      0.93121102	      1.02197241	    -28.04853742	     -2.11443290	     -7.48155814	    -20.40089019	     -0.35606270	     12.49136843	     -3.16793589	     -1.10676024	      3.77925793	     -1.19738255	     22.13294000	    -13.88869857	     -0.24240352	      6.79324623	     -4.25726191	     -8.53496587	    -20.98515766	     -5.65856215	      3.81167436	      2.07905037	    -15.81684851	     -3.20930900	     54.19009803	     89.95437384	      0.00000000	      0.00000000	    -11.05657412	      9.01478233	     27.32965922	     11.55726123	     89.95437384	      0.00000000	      0.00000000
      1.46000000	     16.38453079	      2.48288114	     -1.75682883	      0.54062647	      0.93078329	      1.02188468	    -28.08174693	     -1.98831950	     -5.20589035	    -21.77981920	     -0.38012956	     11.54762518	     -5.47023341	     -0.89783914	      3.32502103	     -0.86560435	     21.60065513	    -14.46093383	     -0.25239091	      7.37142659	     -2.61790422	     -8.38883415	    -20.95136919	     -5.53010480	      4.57780826	      2.01202459	    -15.85271897	     -2.91568126	     53.88162562	     89.95437384	      0.00000000	      0.00000000	    -10.96970748	      8.90074722	     27.75304309	     11.11826761	     89.95437384	      0.00000000	      0.00000000
      1.47000000	     16.13686100	      2.45878824	     -1.70456164	      0.55293142	      0.92969701	      1.02000003	    -28.13645890	     -2.10356326	     -4.96217707	    -22.59651526	     -0.39438359	     11.12057350	     -5.31501351	     -0.88017826	      3.23658331	     -0.94118143	     21.15768361	    -15.13790396	     -0.26420627	      6.95981525	     -2.39177834	     -8.19555073	    -20.30852506	     -5.39436732	      4.50581606	      1.46778731	    -15.77721435	     -2.87585892	     53.74574807	     89.95437384	      0.00000000	      0.00000000	    -11.47105185	      8.75743853	     27.63605427	     11.36106542	     89.95437384	      0.00000000	      0.00000000
      1.48000000	     16.39772534	      2.35765087	     -2.25857230	      0.56342869	      0.92970470	      1.01931259	    -28.00103153	     -2.35881704	     -4.08909860	    -24.49587332	     -0.42753364	      9.66337883	     -6.25773488	     -0.65968716	      3.06084482	     -0.70165901	     21.76572527	    -16.62321832	     -0.29012989	      5.15043038	     -0.18694281	     -7.71522778	    -20.45904129	     -5.45137612	      4.87903178	      1.48741547	    -15.73681708	     -2.47992778	     53.21855264	     89.95437384	      0.00000000	      0.00000000	    -11.39994682	      8.68930723	     27.24746677	     11.17182774	     89.95437384	      0.00000000	      0.00000000
